HIERARCHY
ROOT Hips
{
	OFFSET 0.00000 0.00000 0.00000
	CHANNELS 6 Xposition Yposition Zposition Zrotation Yrotation Xrotation 
	JOINT LHipJoint
	{
		OFFSET 0 0 0
		CHANNELS 3 Zrotation Yrotation Xrotation
		JOINT LeftUpLeg
		{
			OFFSET 1.55766 -1.60504 1.11378
			CHANNELS 3 Zrotation Yrotation Xrotation
			JOINT LeftLeg
			{
				OFFSET 2.29047 -6.29302 0.00000
				CHANNELS 3 Zrotation Yrotation Xrotation
				JOINT LeftFoot
				{
					OFFSET 2.52265 -6.93093 0.00000
					CHANNELS 3 Zrotation Yrotation Xrotation
					JOINT LeftToeBase
					{
						OFFSET 0.17633 -0.48446 2.02656
						CHANNELS 3 Zrotation Yrotation Xrotation
						End Site
						{
							OFFSET 0.00000 -0.00000 1.04989
						}
					}
				}
			}
		}
	}
	JOINT RHipJoint
	{
		OFFSET 0 0 0
		CHANNELS 3 Zrotation Yrotation Xrotation
		JOINT RightUpLeg
		{
			OFFSET -1.48599 -1.60504 1.11378
			CHANNELS 3 Zrotation Yrotation Xrotation
			JOINT RightLeg
			{
				OFFSET -2.27280 -6.24448 0.00000
				CHANNELS 3 Zrotation Yrotation Xrotation
				JOINT RightFoot
				{
					OFFSET -2.50834 -6.89161 0.00000
					CHANNELS 3 Zrotation Yrotation Xrotation
					JOINT RightToeBase
					{
						OFFSET -0.26967 -0.74090 2.08741
						CHANNELS 3 Zrotation Yrotation Xrotation
						End Site
						{
							OFFSET -0.00000 -0.00000 1.10614
						}
					}
				}
			}
		}
	}
	JOINT LowerBack
	{
		OFFSET 0 0 0
		CHANNELS 3 Zrotation Yrotation Xrotation
		JOINT Spine
		{
			OFFSET 0.06481 2.02437 -0.08472
			CHANNELS 3 Zrotation Yrotation Xrotation
			JOINT Spine1
			{
				OFFSET 0.00015 1.96711 0.18069
				CHANNELS 3 Zrotation Yrotation Xrotation
				JOINT Neck
				{
					OFFSET 0 0 0
					CHANNELS 3 Zrotation Yrotation Xrotation
					JOINT Neck1
					{
						OFFSET -0.29961 1.68293 -0.13041
						CHANNELS 3 Zrotation Yrotation Xrotation
						JOINT Head
						{
							OFFSET 0.59697 1.61501 -0.14669
							CHANNELS 3 Zrotation Yrotation Xrotation
							End Site
							{
								OFFSET 0.22973 1.74906 -0.10148
							}
						}
					}
				}
				JOINT LeftShoulder
				{
					OFFSET 0 0 0
					CHANNELS 3 Zrotation Yrotation Xrotation
					JOINT LeftArm
					{
						OFFSET 3.37968 1.02893 0.31147
						CHANNELS 3 Zrotation Yrotation Xrotation
						JOINT LeftForeArm
						{
							OFFSET 5.19807 -0.00000 -0.00000
							CHANNELS 3 Zrotation Yrotation Xrotation
							JOINT LeftHand
							{
								OFFSET 3.09370 -0.00000 -0.00000
								CHANNELS 3 Zrotation Yrotation Xrotation
								JOINT LeftFingerBase
								{
									OFFSET 0 0 0
									CHANNELS 3 Zrotation Yrotation Xrotation
									JOINT LeftHandIndex1
									{
										OFFSET 0.67263 -0.00000 -0.00000
										CHANNELS 3 Zrotation Yrotation Xrotation
										End Site
										{
											OFFSET 0.54229 -0.00000 -0.00000
										}
									}
								}
								JOINT LThumb
								{
									OFFSET 0 0 0
									CHANNELS 3 Zrotation Yrotation Xrotation
									End Site
									{
										OFFSET 0.55057 -0.00000 0.55057
									}
								}
							}
						}
					}
				}
				JOINT RightShoulder
				{
					OFFSET 0 0 0
					CHANNELS 3 Zrotation Yrotation Xrotation
					JOINT RightArm
					{
						OFFSET -3.38254 0.96355 -0.16120
						CHANNELS 3 Zrotation Yrotation Xrotation
						JOINT RightForeArm
						{
							OFFSET -5.45222 -0.00000 -0.00000
							CHANNELS 3 Zrotation Yrotation Xrotation
							JOINT RightHand
							{
								OFFSET -3.01284 -0.00000 -0.00000
								CHANNELS 3 Zrotation Yrotation Xrotation
								JOINT RightFingerBase
								{
									OFFSET 0 0 0
									CHANNELS 3 Zrotation Yrotation Xrotation
									JOINT RightHandIndex1
									{
										OFFSET -0.62230 -0.00000 -0.00000
										CHANNELS 3 Zrotation Yrotation Xrotation
										End Site
										{
											OFFSET -0.50171 -0.00000 -0.00000
										}
									}
								}
								JOINT RThumb
								{
									OFFSET 0 0 0
									CHANNELS 3 Zrotation Yrotation Xrotation
									End Site
									{
										OFFSET -0.50937 -0.00000 0.50937
									}
								}
							}
						}
					}
				}
			}
		}
	}
}
MOTION
Frames: 8
Frame Time: .0083333
-5.6396 16.3027 34.4093 0 0 0 0 0 0 -21 0 0 0 0 0 0 0 0 0 0 0 0 0 0 21 0 0 0 0 0 0 0 0 0 0 0 0 0 0 0 0 0 0 0 0 0 0 -16 0 0 21 0 0 11 0 0 0 -8 0 0 0 0 0 0 0 0 0 0 0 0 0 0 0 0 0 0 0 0 8 0 0 0 0 0 0 0 0 0 0 0 0 0 0 0 0 0
-5.6396 16.3027 34.4093 -156.0740 -79.2205 168.8600 0.0000 0.0000 0.0000 -12.2030 -4.9126 -12.8926 0.5193 4.6187 12.8241 0.4867 -4.3934 -12.4127 1.9589 -8.7800 -25.1094 0.0000 0.0000 0.0000 24.4944 -3.8856 -13.9826 -0.3084 -3.5705 9.8712 0.8030 21.1178 -7.4676 -0.2795 3.4004 -9.3955 3.8823 3.0414 -10.2642 -0.0925 3.4218 -6.3963 -1.9399 1.4814 -0.6808 -28.5163 -8.7284 19.5680 46.9780 -21.6132 -5.0482 25.1539 -14.6280 5.2938 0.0000 0.0000 0.0000 -85.5971 9.2473 35.7149 18.3970 -28.6625 -4.7381 -0.0000 0.0000 -46.1083 -12.5968 7.7656 -1.7295 -7.1250 0.0000 -0.0000 -32.0601 35.8581 8.3132 0.0000 0.0000 0.0000 89.1164 -5.2600 45.7222 -13.9911 22.7220 -2.8247 0.0000 0.0000 22.7210 -8.6165 3.8279 -0.5796 7.1250 -0.0000 -0.0000 13.5636 -26.0615 6.3955
-5.6400 16.3023 34.4031 -156.3720 -79.2426 169.1300 0.0000 0.0000 0.0000 -12.2529 -4.9127 -12.8423 0.5169 4.6079 12.7935 0.4860 -4.3715 -12.4032 1.9586 -8.7793 -25.1073 0.0000 0.0000 0.0000 24.4345 -3.8913 -14.0431 -0.3181 -3.6254 10.0251 0.8069 21.1646 -7.4815 -0.2613 3.2887 -9.0836 3.7171 3.0271 -10.2492 -0.0223 3.4169 -6.3931 -1.7764 1.4844 -0.6987 -28.5916 -8.7176 19.6085 46.9944 -21.5974 -5.1329 25.2022 -14.6260 5.2721 0.0000 0.0000 0.0000 -85.6842 9.3193 35.9085 18.1708 -28.3753 -4.6301 -0.0000 0.0000 -45.7995 -12.6896 5.8462 -1.3139 -7.1250 0.0000 -0.0000 -31.4385 34.1730 9.6271 0.0000 0.0000 0.0000 88.9770 -5.2703 45.6446 -13.9732 22.6964 -2.8178 0.0000 0.0000 22.8224 -8.5772 3.8835 -0.5853 7.1250 -0.0000 -0.0000 13.5868 -26.0070 6.4249
-5.6386 16.3005 34.3979 -155.9870 -79.2653 168.7410 0.0000 0.0000 0.0000 -12.1563 -5.0367 -12.8361 0.5226 4.6332 12.8652 0.4905 -4.2440 -12.4638 2.0071 -8.8809 -25.4234 0.0000 0.0000 0.0000 24.5238 -3.8976 -14.0528 -0.3208 -3.6406 10.0677 0.7993 21.1584 -7.5583 -0.2697 3.3408 -9.2292 3.8165 3.0424 -10.2318 -0.0257 3.4300 -6.3952 -1.8348 1.4881 -0.7043 -28.5485 -8.7213 19.6456 47.0372 -21.5856 -5.2117 25.2327 -14.6312 5.2400 0.0000 -0.0000 0.0000 -85.6448 9.3586 36.1273 17.9285 -28.0656 -4.5156 -0.0000 0.0000 -45.4907 -12.7335 3.8854 -0.8773 -7.1250 0.0000 -0.0000 -30.8131 32.4458 10.9011 0.0000 -0.0000 0.0000 89.0482 -5.2711 45.4644 -13.9403 22.6492 -2.8051 0.0000 0.0000 22.9402 -8.5704 3.9673 -0.5974 7.1250 -0.0000 -0.0000 13.5827 -25.9246 6.4499
-5.6374 16.2994 34.3908 -155.8210 -79.2817 168.5560 0.0000 0.0000 0.0000 -12.0984 -5.0954 -12.8268 0.5273 4.6534 12.9227 0.4917 -4.2086 -12.4790 2.0073 -8.8813 -25.4248 0.0000 0.0000 0.0000 24.5729 -3.8996 -14.0612 -0.3246 -3.6618 10.1272 0.7962 21.1439 -7.5756 -0.2619 3.2923 -9.0936 3.8489 3.0453 -10.2223 -0.0168 3.4321 -6.3853 -1.8436 1.4890 -0.6978 -28.5901 -8.6997 19.6781 47.0940 -21.5734 -5.2708 25.3166 -14.6419 5.2352 0.0000 -0.0000 0.0000 -85.6176 9.4011 36.3672 17.7250 -27.8036 -4.4202 -0.0000 0.0000 -45.2524 -12.7098 2.1100 -0.4758 -7.1250 0.0000 -0.0000 -30.2410 30.8781 11.9862 0.0000 -0.0000 0.0000 89.0799 -5.2751 45.4405 -13.9375 22.6453 -2.8040 0.0000 0.0000 22.9897 -8.5946 3.8888 -0.5873 7.1250 -0.0000 -0.0000 13.5732 -26.0016 6.4200
-5.6362 16.2980 34.3842 -155.6470 -79.2982 168.3660 0.0000 0.0000 0.0000 -12.0380 -5.1810 -12.8366 0.5354 4.6886 13.0224 0.4955 -4.1417 -12.5291 2.0201 -8.9077 -25.5072 0.0000 0.0000 0.0000 24.6221 -3.8951 -14.0438 -0.3256 -3.6677 10.1435 0.7919 21.1189 -7.5926 -0.2597 3.2784 -9.0547 3.8827 3.0526 -10.2062 -0.0095 3.4400 -6.3809 -1.8547 1.4924 -0.7001 -28.5973 -8.6915 19.7211 47.1420 -21.5649 -5.3445 25.3747 -14.6520 5.2165 -0.0000 -0.0000 0.0000 -85.5895 9.4411 36.5825 17.5943 -27.6346 -4.3594 -0.0000 0.0000 -45.0954 -12.5857 0.8699 -0.1942 -7.1250 0.0000 -0.0000 -29.7890 29.7858 12.6727 -0.0000 -0.0000 0.0000 89.1003 -5.2806 45.3836 -13.9270 22.6303 -2.8000 0.0000 0.0000 23.0415 -8.6083 3.8780 -0.5866 7.1250 -0.0000 -0.0000 13.5642 -26.0122 6.4120
-5.6346 16.2965 34.3774 -155.4390 -79.3118 168.1430 0.0000 0.0000 0.0000 -11.9689 -5.2694 -12.8446 0.5434 4.7226 13.1191 0.4989 -4.0720 -12.5754 2.0323 -8.9330 -25.5859 0.0000 0.0000 0.0000 24.6788 -3.8769 -14.0258 -0.3271 -3.6761 10.1672 0.7849 21.0801 -7.6237 -0.2597 3.2787 -9.0557 3.9366 3.0662 -10.1885 -0.0138 3.4552 -6.3762 -1.8884 1.4987 -0.7009 -28.5777 -8.6918 19.7704 47.1910 -21.5609 -5.4261 25.4216 -14.6647 5.1915 0.0000 0.0000 0.0000 -85.5396 9.4725 36.8012 17.5171 -27.5344 -4.3237 -0.0000 0.0000 -45.0087 -12.3838 0.0091 -0.0020 -7.1250 0.0000 -0.0000 -29.4076 29.0328 13.0839 0.0000 0.0000 0.0000 89.1369 -5.2843 45.3284 -13.9188 22.6185 -2.7968 0.0000 0.0000 23.0771 -8.6271 3.8688 -0.5865 7.1250 -0.0000 -0.0000 13.5513 -26.0213 6.4026
-5.6327 16.2950 34.3703 -155.2170 -79.3160 167.9070 0.0000 0.0000 0.0000 -11.8907 -5.3572 -12.8572 0.5518 4.7585 13.2209 0.5024 -3.9997 -12.6220 2.0412 -8.9515 -25.6436 0.0000 0.0000 0.0000 24.7407 -3.8315 -14.0006 -0.3286 -3.6844 10.1905 0.7751 21.0196 -7.6589 -0.2606 3.2840 -9.0705 3.9960 3.0845 -10.1682 -0.0186 3.4761 -6.3727 -1.9251 1.5078 -0.7036 -28.5407 -8.7003 19.8261 47.2352 -21.5603 -5.5164 25.4542 -14.6780 5.1596 -0.0000 -0.0000 0.0000 -85.4842 9.5018 37.0353 17.4779 -27.4835 -4.3056 -0.0000 0.0000 -44.8970 -12.0956 -0.5942 0.1273 -7.1250 0.0000 -0.0000 -29.0468 28.5126 13.2979 -0.0000 -0.0000 0.0000 89.1698 -5.2883 45.2899 -13.9139 22.6115 -2.7949 0.0000 0.0000 23.0918 -8.6504 3.8517 -0.5855 7.1250 -0.0000 -0.0000 13.5359 -26.0380 6.3894
